<svg height="750" width="720" xmlns="http://www.w3.org/2000/svg">
<rect height="750" fill="#555" width="720"></rect>
<text fill="#7f7" font-family="Courier New" font-size="12" xml:space="preserve">
<tspan x="10" y="26">6 megabytes installed</tspan>
<tspan x="10" y="42"></tspan>
<tspan x="10" y="58">node_modules</tspan>
<tspan x="10" y="74">└─┬ csshint@0.3.3 </tspan>
<tspan x="10" y="90">  ├─┬ chalk@1.1.3 </tspan>
<tspan x="10" y="106">  │ ├── ansi-styles@2.2.1 </tspan>
<tspan x="10" y="122">  │ ├── escape-string-regexp@1.0.5 </tspan>
<tspan x="10" y="138">  │ ├─┬ has-ansi@2.0.0 </tspan>
<tspan x="10" y="154">  │ │ └── ansi-regex@2.1.1 </tspan>
<tspan x="10" y="170">  │ ├── strip-ansi@3.0.1 </tspan>
<tspan x="10" y="186">  │ └── supports-color@2.0.0 </tspan>
<tspan x="10" y="202">  ├─┬ edp-core@1.0.32 </tspan>
<tspan x="10" y="218">  │ ├─┬ chalk@1.0.0 </tspan>
<tspan x="10" y="234">  │ │ ├─┬ has-ansi@1.0.3 </tspan>
<tspan x="10" y="250">  │ │ │ ├── ansi-regex@1.1.1 </tspan>
<tspan x="10" y="266">  │ │ │ └── get-stdin@4.0.1 </tspan>
<tspan x="10" y="282">  │ │ ├── strip-ansi@2.0.1 </tspan>
<tspan x="10" y="298">  │ │ └── supports-color@1.3.1 </tspan>
<tspan x="10" y="314">  │ ├── edp-config@1.0.2 </tspan>
<tspan x="10" y="330">  │ ├── esprima@2.2.0 </tspan>
<tspan x="10" y="346">  │ ├── estraverse@4.1.1 </tspan>
<tspan x="10" y="362">  │ ├─┬ glob@5.0.15 </tspan>
<tspan x="10" y="378">  │ │ ├─┬ inflight@1.0.6 </tspan>
<tspan x="10" y="394">  │ │ │ └── wrappy@1.0.2 </tspan>
<tspan x="10" y="410">  │ │ ├── inherits@2.0.3 </tspan>
<tspan x="10" y="426">  │ │ ├── once@1.4.0 </tspan>
<tspan x="10" y="442">  │ │ └── path-is-absolute@1.0.1 </tspan>
<tspan x="10" y="458">  │ ├── iconv-lite@0.4.15 </tspan>
<tspan x="10" y="474">  │ ├─┬ minimatch@2.0.10 </tspan>
<tspan x="10" y="490">  │ │ └─┬ brace-expansion@1.1.7 </tspan>
<tspan x="10" y="506">  │ │   ├── balanced-match@0.4.2 </tspan>
<tspan x="10" y="522">  │ │   └── concat-map@0.0.1 </tspan>
<tspan x="10" y="538">  │ └── semver@4.3.6 </tspan>
<tspan x="10" y="554">  ├─┬ js-yaml@3.8.3 </tspan>
<tspan x="10" y="570">  │ ├─┬ argparse@1.0.9 </tspan>
<tspan x="10" y="586">  │ │ └── sprintf-js@1.0.3 </tspan>
<tspan x="10" y="602">  │ └── esprima@3.1.3 </tspan>
<tspan x="10" y="618">  ├── manis@0.3.1 </tspan>
<tspan x="10" y="634">  ├── object-assign@4.1.1 </tspan>
<tspan x="10" y="650">  ├─┬ postcss@5.2.17 </tspan>
<tspan x="10" y="666">  │ ├── js-base64@2.1.9 </tspan>
<tspan x="10" y="682">  │ ├── source-map@0.5.6 </tspan>
<tspan x="10" y="698">  │ └─┬ supports-color@3.2.3 </tspan>
<tspan x="10" y="714">  │   └── has-flag@1.0.0 </tspan>
<tspan x="10" y="730">  └── strip-json-comments@2.0.1</tspan>
</text>
</svg>
